<svg viewBox="0 0 20 20" xmlns="http://www.w3.org/2000/svg" xmlns:xlink="http://www.w3.org/1999/xlink" width="20.000000" height="20.000000" fill="none">
	<rect id="Krestiksvgpng.ru_ 1 1" width="20.000000" height="20.000000" x="0.000000" y="0.000000" />
	<rect id="Krestiksvgpng.ru_ 1" width="20.000000" height="20.000000" x="0.000000" y="0.000000" />
	<path id="Vector 1" d="M1.5662 0.268707C1.20793 -0.0895689 0.626978 -0.0895689 0.268705 0.268707C-0.0895683 0.62698 -0.0895683 1.20793 0.268705 1.5662L1.5662 0.268707ZM18.4338 19.7313C18.7921 20.0896 19.373 20.0896 19.7313 19.7313C20.0896 19.373 20.0896 18.7921 19.7313 18.4338L18.4338 19.7313ZM0.268705 18.4338C-0.0895683 18.7921 -0.0895683 19.373 0.268705 19.7313C0.626978 20.0896 1.20793 20.0896 1.5662 19.7313L0.268705 18.4338ZM19.7313 1.5662C20.0896 1.20793 20.0896 0.62698 19.7313 0.268707C19.373 -0.0895689 18.7921 -0.0895689 18.4338 0.268707L19.7313 1.5662ZM0.268705 1.5662L18.4338 19.7313L19.7313 18.4338L1.5662 0.268707L0.268705 1.5662ZM1.5662 19.7313L19.7313 1.5662L18.4338 0.268707L0.268705 18.4338L1.5662 19.7313Z" fill="rgb(0,0,0)" fill-rule="nonzero" />
</svg>
